<svg width="83" height="19" viewBox="0 0 83 19" fill="none" xmlns="http://www.w3.org/2000/svg">
<path d="M26.256 5.368V8.668H30.6V9.436H26.256V13H25.368V4.6H31.128V5.368H26.256ZM34.7319 6.64C35.5559 6.64 36.1879 6.848 36.6279 7.264C37.0679 7.672 37.2879 8.28 37.2879 9.088V13H36.4719V12.016C36.2799 12.344 35.9959 12.6 35.6199 12.784C35.2519 12.968 34.8119 13.06 34.2999 13.06C33.5959 13.06 33.0359 12.892 32.6199 12.556C32.2039 12.22 31.9959 11.776 31.9959 11.224C31.9959 10.688 32.1879 10.256 32.5719 9.928C32.9639 9.6 33.5839 9.436 34.4319 9.436H36.4359V9.052C36.4359 8.508 36.2839 8.096 35.9799 7.816C35.6759 7.528 35.2319 7.384 34.6479 7.384C34.2479 7.384 33.8639 7.452 33.4959 7.588C33.1279 7.716 32.8119 7.896 32.5479 8.128L32.1639 7.492C32.4839 7.22 32.8679 7.012 33.3159 6.868C33.7639 6.716 34.2359 6.64 34.7319 6.64ZM34.4319 12.388C34.9119 12.388 35.3239 12.28 35.6679 12.064C36.0119 11.84 36.2679 11.52 36.4359 11.104V10.072H34.4559C33.3759 10.072 32.8359 10.448 32.8359 11.2C32.8359 11.568 32.9759 11.86 33.2559 12.076C33.5359 12.284 33.9279 12.388 34.4319 12.388ZM42.2415 13.06C41.6175 13.06 41.0575 12.924 40.5615 12.652C40.0735 12.38 39.6895 12 39.4095 11.512C39.1295 11.016 38.9895 10.46 38.9895 9.844C38.9895 9.228 39.1295 8.676 39.4095 8.188C39.6895 7.7 40.0735 7.32 40.5615 7.048C41.0575 6.776 41.6175 6.64 42.2415 6.64C42.7855 6.64 43.2695 6.748 43.6935 6.964C44.1255 7.172 44.4655 7.48 44.7135 7.888L44.0775 8.32C43.8695 8.008 43.6055 7.776 43.2855 7.624C42.9655 7.464 42.6175 7.384 42.2415 7.384C41.7855 7.384 41.3735 7.488 41.0055 7.696C40.6455 7.896 40.3615 8.184 40.1535 8.56C39.9535 8.936 39.8535 9.364 39.8535 9.844C39.8535 10.332 39.9535 10.764 40.1535 11.14C40.3615 11.508 40.6455 11.796 41.0055 12.004C41.3735 12.204 41.7855 12.304 42.2415 12.304C42.6175 12.304 42.9655 12.228 43.2855 12.076C43.6055 11.924 43.8695 11.692 44.0775 11.38L44.7135 11.812C44.4655 12.22 44.1255 12.532 43.6935 12.748C43.2615 12.956 42.7775 13.06 42.2415 13.06ZM51.7778 10.108H46.4978C46.5458 10.764 46.7978 11.296 47.2538 11.704C47.7098 12.104 48.2858 12.304 48.9818 12.304C49.3738 12.304 49.7338 12.236 50.0618 12.1C50.3898 11.956 50.6738 11.748 50.9138 11.476L51.3938 12.028C51.1138 12.364 50.7618 12.62 50.3378 12.796C49.9218 12.972 49.4618 13.06 48.9578 13.06C48.3098 13.06 47.7338 12.924 47.2298 12.652C46.7338 12.372 46.3458 11.988 46.0658 11.5C45.7858 11.012 45.6458 10.46 45.6458 9.844C45.6458 9.228 45.7778 8.676 46.0418 8.188C46.3138 7.7 46.6818 7.32 47.1458 7.048C47.6178 6.776 48.1458 6.64 48.7298 6.64C49.3138 6.64 49.8378 6.776 50.3018 7.048C50.7658 7.32 51.1298 7.7 51.3938 8.188C51.6578 8.668 51.7898 9.22 51.7898 9.844L51.7778 10.108ZM48.7298 7.372C48.1218 7.372 47.6098 7.568 47.1938 7.96C46.7858 8.344 46.5538 8.848 46.4978 9.472H50.9738C50.9178 8.848 50.6818 8.344 50.2658 7.96C49.8578 7.568 49.3458 7.372 48.7298 7.372ZM56.7759 6.64C57.3679 6.64 57.9039 6.776 58.3839 7.048C58.8639 7.312 59.2399 7.688 59.5119 8.176C59.7839 8.664 59.9199 9.22 59.9199 9.844C59.9199 10.468 59.7839 11.024 59.5119 11.512C59.2399 12 58.8639 12.38 58.3839 12.652C57.9039 12.924 57.3679 13.06 56.7759 13.06C56.2479 13.06 55.7719 12.948 55.3479 12.724C54.9319 12.5 54.5959 12.176 54.3399 11.752V13H53.5239V4.096H54.3759V7.888C54.6399 7.48 54.9759 7.172 55.3839 6.964C55.7999 6.748 56.2639 6.64 56.7759 6.64ZM56.7159 12.304C57.1559 12.304 57.5559 12.204 57.9159 12.004C58.2759 11.796 58.5559 11.504 58.7559 11.128C58.9639 10.752 59.0679 10.324 59.0679 9.844C59.0679 9.364 58.9639 8.936 58.7559 8.56C58.5559 8.184 58.2759 7.896 57.9159 7.696C57.5559 7.488 57.1559 7.384 56.7159 7.384C56.2679 7.384 55.8639 7.488 55.5039 7.696C55.1519 7.896 54.8719 8.184 54.6639 8.56C54.4639 8.936 54.3639 9.364 54.3639 9.844C54.3639 10.324 54.4639 10.752 54.6639 11.128C54.8719 11.504 55.1519 11.796 55.5039 12.004C55.8639 12.204 56.2679 12.304 56.7159 12.304ZM64.2368 13.06C63.6288 13.06 63.0808 12.924 62.5928 12.652C62.1048 12.372 61.7208 11.988 61.4408 11.5C61.1608 11.012 61.0208 10.46 61.0208 9.844C61.0208 9.228 61.1608 8.676 61.4408 8.188C61.7208 7.7 62.1048 7.32 62.5928 7.048C63.0808 6.776 63.6288 6.64 64.2368 6.64C64.8448 6.64 65.3928 6.776 65.8808 7.048C66.3688 7.32 66.7488 7.7 67.0208 8.188C67.3008 8.676 67.4408 9.228 67.4408 9.844C67.4408 10.46 67.3008 11.012 67.0208 11.5C66.7488 11.988 66.3688 12.372 65.8808 12.652C65.3928 12.924 64.8448 13.06 64.2368 13.06ZM64.2368 12.304C64.6848 12.304 65.0848 12.204 65.4368 12.004C65.7968 11.796 66.0768 11.504 66.2768 11.128C66.4768 10.752 66.5768 10.324 66.5768 9.844C66.5768 9.364 66.4768 8.936 66.2768 8.56C66.0768 8.184 65.7968 7.896 65.4368 7.696C65.0848 7.488 64.6848 7.384 64.2368 7.384C63.7888 7.384 63.3848 7.488 63.0248 7.696C62.6728 7.896 62.3928 8.184 62.1848 8.56C61.9848 8.936 61.8848 9.364 61.8848 9.844C61.8848 10.324 61.9848 10.752 62.1848 11.128C62.3928 11.504 62.6728 11.796 63.0248 12.004C63.3848 12.204 63.7888 12.304 64.2368 12.304ZM71.7602 13.06C71.1522 13.06 70.6042 12.924 70.1162 12.652C69.6282 12.372 69.2442 11.988 68.9642 11.5C68.6842 11.012 68.5442 10.46 68.5442 9.844C68.5442 9.228 68.6842 8.676 68.9642 8.188C69.2442 7.7 69.6282 7.32 70.1162 7.048C70.6042 6.776 71.1522 6.64 71.7602 6.64C72.3682 6.64 72.9162 6.776 73.4042 7.048C73.8922 7.32 74.2722 7.7 74.5442 8.188C74.8242 8.676 74.9642 9.228 74.9642 9.844C74.9642 10.46 74.8242 11.012 74.5442 11.5C74.2722 11.988 73.8922 12.372 73.4042 12.652C72.9162 12.924 72.3682 13.06 71.7602 13.06ZM71.7602 12.304C72.2082 12.304 72.6082 12.204 72.9602 12.004C73.3202 11.796 73.6002 11.504 73.8002 11.128C74.0002 10.752 74.1002 10.324 74.1002 9.844C74.1002 9.364 74.0002 8.936 73.8002 8.56C73.6002 8.184 73.3202 7.896 72.9602 7.696C72.6082 7.488 72.2082 7.384 71.7602 7.384C71.3122 7.384 70.9082 7.488 70.5482 7.696C70.1962 7.896 69.9162 8.184 69.7082 8.56C69.5082 8.936 69.4082 9.364 69.4082 9.844C69.4082 10.324 69.5082 10.752 69.7082 11.128C69.9162 11.504 70.1962 11.796 70.5482 12.004C70.9082 12.204 71.3122 12.304 71.7602 12.304ZM79.0436 9.832L77.5556 11.2V13H76.7036V4.096H77.5556V10.132L81.3236 6.688H82.3796L79.6796 9.268L82.6316 13H81.5876L79.0436 9.832Z" fill="#F9FAFE"/>
<path d="M17.3372 18.35C17.8964 18.35 18.3499 17.8965 18.3499 17.3373V1.01274C18.3499 0.453293 17.8964 0 17.3372 0H1.01274C0.453293 0 0 0.453361 0 1.01274V17.3372C0 17.8965 0.453293 18.3499 1.01274 18.3499H17.3372V18.35Z" fill="white"/>
<path d="M12.6612 18.35V11.2439H15.0464L15.4035 8.47447H12.6611V6.70633C12.6611 5.90453 12.8837 5.35814 14.0335 5.35814L15.5 5.35745V2.88054C15.2464 2.84685 14.3758 2.77142 13.3631 2.77142C11.2488 2.77142 9.80122 4.062 9.80122 6.43214V8.47447H7.40991V11.2439H9.80122V18.3499H12.6612V18.35Z" fill="#485A96"/>
</svg>
