<svg width="68" height="19" viewBox="0 0 68 19" fill="none" xmlns="http://www.w3.org/2000/svg">
<path d="M31.284 9.8H32.136V13.004C31.744 13.348 31.28 13.612 30.744 13.796C30.208 13.98 29.644 14.072 29.052 14.072C28.212 14.072 27.456 13.888 26.784 13.52C26.112 13.152 25.584 12.644 25.2 11.996C24.816 11.34 24.624 10.608 24.624 9.8C24.624 8.992 24.816 8.264 25.2 7.616C25.584 6.96 26.112 6.448 26.784 6.08C27.456 5.712 28.216 5.528 29.064 5.528C29.704 5.528 30.292 5.632 30.828 5.84C31.364 6.04 31.816 6.34 32.184 6.74L31.632 7.304C30.968 6.648 30.124 6.32 29.1 6.32C28.42 6.32 27.804 6.472 27.252 6.776C26.708 7.072 26.28 7.488 25.968 8.024C25.656 8.552 25.5 9.144 25.5 9.8C25.5 10.456 25.656 11.048 25.968 11.576C26.28 12.104 26.708 12.52 27.252 12.824C27.796 13.128 28.408 13.28 29.088 13.28C29.952 13.28 30.684 13.064 31.284 12.632V9.8ZM37.0493 14.06C36.4413 14.06 35.8933 13.924 35.4053 13.652C34.9173 13.372 34.5333 12.988 34.2533 12.5C33.9733 12.012 33.8333 11.46 33.8333 10.844C33.8333 10.228 33.9733 9.676 34.2533 9.188C34.5333 8.7 34.9173 8.32 35.4053 8.048C35.8933 7.776 36.4413 7.64 37.0493 7.64C37.6573 7.64 38.2053 7.776 38.6933 8.048C39.1813 8.32 39.5613 8.7 39.8333 9.188C40.1133 9.676 40.2533 10.228 40.2533 10.844C40.2533 11.46 40.1133 12.012 39.8333 12.5C39.5613 12.988 39.1813 13.372 38.6933 13.652C38.2053 13.924 37.6573 14.06 37.0493 14.06ZM37.0493 13.304C37.4973 13.304 37.8973 13.204 38.2493 13.004C38.6093 12.796 38.8893 12.504 39.0893 12.128C39.2893 11.752 39.3893 11.324 39.3893 10.844C39.3893 10.364 39.2893 9.936 39.0893 9.56C38.8893 9.184 38.6093 8.896 38.2493 8.696C37.8973 8.488 37.4973 8.384 37.0493 8.384C36.6013 8.384 36.1973 8.488 35.8373 8.696C35.4853 8.896 35.2053 9.184 34.9973 9.56C34.7973 9.936 34.6973 10.364 34.6973 10.844C34.6973 11.324 34.7973 11.752 34.9973 12.128C35.2053 12.504 35.4853 12.796 35.8373 13.004C36.1973 13.204 36.6013 13.304 37.0493 13.304ZM44.5727 14.06C43.9647 14.06 43.4167 13.924 42.9287 13.652C42.4407 13.372 42.0567 12.988 41.7767 12.5C41.4967 12.012 41.3567 11.46 41.3567 10.844C41.3567 10.228 41.4967 9.676 41.7767 9.188C42.0567 8.7 42.4407 8.32 42.9287 8.048C43.4167 7.776 43.9647 7.64 44.5727 7.64C45.1807 7.64 45.7287 7.776 46.2167 8.048C46.7047 8.32 47.0847 8.7 47.3567 9.188C47.6367 9.676 47.7767 10.228 47.7767 10.844C47.7767 11.46 47.6367 12.012 47.3567 12.5C47.0847 12.988 46.7047 13.372 46.2167 13.652C45.7287 13.924 45.1807 14.06 44.5727 14.06ZM44.5727 13.304C45.0207 13.304 45.4207 13.204 45.7727 13.004C46.1327 12.796 46.4127 12.504 46.6127 12.128C46.8127 11.752 46.9127 11.324 46.9127 10.844C46.9127 10.364 46.8127 9.936 46.6127 9.56C46.4127 9.184 46.1327 8.896 45.7727 8.696C45.4207 8.488 45.0207 8.384 44.5727 8.384C44.1247 8.384 43.7207 8.488 43.3607 8.696C43.0087 8.896 42.7287 9.184 42.5207 9.56C42.3207 9.936 42.2207 10.364 42.2207 10.844C42.2207 11.324 42.3207 11.752 42.5207 12.128C42.7287 12.504 43.0087 12.796 43.3607 13.004C43.7207 13.204 44.1247 13.304 44.5727 13.304ZM55.3601 7.688V13.232C55.3601 14.304 55.0961 15.096 54.5681 15.608C54.0481 16.128 53.2601 16.388 52.2041 16.388C51.6201 16.388 51.0641 16.3 50.5361 16.124C50.0161 15.956 49.5921 15.72 49.2641 15.416L49.6961 14.768C50.0001 15.04 50.3681 15.252 50.8001 15.404C51.2401 15.556 51.7001 15.632 52.1801 15.632C52.9801 15.632 53.5681 15.444 53.9441 15.068C54.3201 14.7 54.5081 14.124 54.5081 13.34V12.536C54.2441 12.936 53.8961 13.24 53.4641 13.448C53.0401 13.656 52.5681 13.76 52.0481 13.76C51.4561 13.76 50.9161 13.632 50.4281 13.376C49.9481 13.112 49.5681 12.748 49.2881 12.284C49.0161 11.812 48.8801 11.28 48.8801 10.688C48.8801 10.096 49.0161 9.568 49.2881 9.104C49.5681 8.64 49.9481 8.28 50.4281 8.024C50.9081 7.768 51.4481 7.64 52.0481 7.64C52.5841 7.64 53.0681 7.748 53.5001 7.964C53.9321 8.18 54.2801 8.492 54.5441 8.9V7.688H55.3601ZM52.1321 13.004C52.5881 13.004 53.0001 12.908 53.3681 12.716C53.7361 12.516 54.0201 12.24 54.2201 11.888C54.4281 11.536 54.5321 11.136 54.5321 10.688C54.5321 10.24 54.4281 9.844 54.2201 9.5C54.0201 9.148 53.7361 8.876 53.3681 8.684C53.0081 8.484 52.5961 8.384 52.1321 8.384C51.6761 8.384 51.2641 8.48 50.8961 8.672C50.5361 8.864 50.2521 9.136 50.0441 9.488C49.8441 9.84 49.7441 10.24 49.7441 10.688C49.7441 11.136 49.8441 11.536 50.0441 11.888C50.2521 12.24 50.5361 12.516 50.8961 12.716C51.2641 12.908 51.6761 13.004 52.1321 13.004ZM57.7427 5.096H58.5947V14H57.7427V5.096ZM66.4613 11.108H61.1813C61.2293 11.764 61.4813 12.296 61.9373 12.704C62.3933 13.104 62.9693 13.304 63.6653 13.304C64.0573 13.304 64.4173 13.236 64.7453 13.1C65.0733 12.956 65.3573 12.748 65.5973 12.476L66.0773 13.028C65.7973 13.364 65.4453 13.62 65.0213 13.796C64.6053 13.972 64.1453 14.06 63.6413 14.06C62.9933 14.06 62.4173 13.924 61.9133 13.652C61.4173 13.372 61.0293 12.988 60.7493 12.5C60.4693 12.012 60.3293 11.46 60.3293 10.844C60.3293 10.228 60.4613 9.676 60.7253 9.188C60.9973 8.7 61.3653 8.32 61.8293 8.048C62.3013 7.776 62.8293 7.64 63.4133 7.64C63.9973 7.64 64.5213 7.776 64.9853 8.048C65.4493 8.32 65.8133 8.7 66.0773 9.188C66.3413 9.668 66.4733 10.22 66.4733 10.844L66.4613 11.108ZM63.4133 8.372C62.8053 8.372 62.2933 8.568 61.8773 8.96C61.4693 9.344 61.2373 9.848 61.1813 10.472H65.6573C65.6013 9.848 65.3653 9.344 64.9493 8.96C64.5413 8.568 64.0293 8.372 63.4133 8.372Z" fill="#181C26"/>
<path d="M18 9.37781C18 8.62351 17.9388 8.07308 17.8062 7.50226H9.18347V10.9068H14.2448C14.1428 11.7529 13.5918 13.027 12.3672 13.8832L12.35 13.9972L15.0764 16.107L15.2653 16.1258C17 14.5254 18 12.1708 18 9.37781" fill="#4285F4"/>
<path d="M9.18477 18.348C11.6644 18.348 13.7461 17.5325 15.2666 16.1259L12.3685 13.8833C11.593 14.4235 10.5521 14.8007 9.18477 14.8007C6.75614 14.8007 4.69486 13.2004 3.96008 10.9884L3.85237 10.9975L1.01748 13.1891L0.980408 13.2921C2.49064 16.2889 5.59279 18.348 9.18477 18.348Z" fill="#34A853"/>
<path d="M3.95926 10.9884C3.76538 10.4176 3.65317 9.80594 3.65317 9.17399C3.65317 8.54196 3.76538 7.93039 3.94906 7.35957L3.94392 7.238L1.07351 5.01123L0.979596 5.05585C0.357157 6.29945 0 7.69596 0 9.17399C0 10.652 0.357157 12.0485 0.979596 13.292L3.95926 10.9884" fill="#FBBC05"/>
<path d="M9.18474 3.54725C10.9093 3.54725 12.0725 4.29135 12.7358 4.91319L15.3277 2.38523C13.7359 0.907208 11.6644 0 9.18474 0C5.59277 0 2.49064 2.05903 0.980408 5.05584L3.94987 7.35956C4.69485 5.14761 6.75612 3.54725 9.18474 3.54725" fill="#EB4335"/>
</svg>
