<svg width="784" height="545" viewBox="0 0 784 545" fill="none" xmlns="http://www.w3.org/2000/svg">
<g filter="url(#filter0_d_1:297)">
<path d="M125.966 489.714C115.08 489.714 106.255 480.889 106.255 470.003C106.255 459.116 115.08 450.291 125.966 450.291C136.852 450.291 145.677 459.116 145.677 470.003C145.677 480.889 136.852 489.714 125.966 489.714Z" fill="#EEF2FF"/>
<path d="M595.167 298.242C569.156 266.879 573.495 220.368 604.858 194.357C636.222 168.347 682.732 172.686 708.743 204.049C734.754 235.413 730.414 281.923 699.051 307.934C667.688 333.944 621.177 329.605 595.167 298.242Z" fill="#EEF2FF"/>
<path d="M735.246 362.886C735.246 364.252 735.651 365.586 736.409 366.721C737.167 367.856 738.245 368.741 739.506 369.263C740.768 369.785 742.155 369.922 743.494 369.656C744.833 369.389 746.063 368.732 747.028 367.767C747.993 366.802 748.651 365.572 748.917 364.233C749.183 362.894 749.047 361.506 748.524 360.245C748.002 358.984 747.117 357.906 745.982 357.148C744.847 356.389 743.513 355.985 742.148 355.985C740.319 355.99 738.566 356.718 737.273 358.012C735.98 359.305 735.251 361.058 735.246 362.886Z" fill="#6473F9"/>
<path d="M21.5597 298.664C21.5558 300.266 22.0276 301.833 22.9152 303.166C23.8028 304.5 25.0663 305.54 26.5455 306.155C28.0248 306.77 29.6534 306.931 31.2247 306.62C32.7961 306.308 34.2396 305.537 35.3724 304.405C36.5051 303.272 37.2761 301.828 37.5877 300.257C37.8993 298.686 37.7373 297.057 37.1225 295.578C36.5077 294.098 35.4676 292.835 34.1341 291.947C32.8005 291.06 31.2334 290.588 29.6315 290.592C27.4907 290.592 25.4376 291.442 23.9239 292.956C22.4101 294.47 21.5597 296.523 21.5597 298.664Z" fill="#F5DB4A"/>
<path d="M381.668 26.9929C377.447 26.9929 374.026 23.5711 374.026 19.3501C374.026 15.129 377.447 11.7072 381.668 11.7072C385.889 11.7072 389.311 15.129 389.311 19.3501C389.311 23.5711 385.889 26.9929 381.668 26.9929Z" fill="#6473F9"/>
<path d="M542.742 482.974C535.98 476.213 535.98 465.251 542.742 458.489C549.503 451.728 560.465 451.728 567.226 458.489C573.988 465.251 573.988 476.213 567.226 482.974C560.465 489.735 549.503 489.735 542.742 482.974Z" fill="#EEF2FF"/>
<path d="M92.6204 147.129C58.474 134.165 41.3023 95.974 54.2665 61.8276C67.2307 27.6812 105.421 10.5097 139.568 23.4738C173.714 36.438 190.886 74.6287 177.922 108.775C164.957 142.922 126.767 160.093 92.6204 147.129Z" fill="#EEF2FF"/>
<path d="M639.711 446.782L699.118 437.95L677.106 496.09L639.711 446.782Z" fill="#A1AEEF"/>
<path d="M120.429 374.058V105.917C120.429 94.127 125.112 82.8202 133.449 74.4836C141.785 66.1471 153.092 61.4636 164.882 61.4636H623.255C635.045 61.4636 646.352 66.1471 654.688 74.4836C663.025 82.8202 667.708 94.127 667.708 105.917V374.058C667.708 379.896 666.559 385.677 664.325 391.07C662.091 396.463 658.816 401.364 654.688 405.491C650.56 409.619 645.66 412.894 640.267 415.128C634.873 417.362 629.093 418.511 623.255 418.511H164.882C159.044 418.511 153.264 417.362 147.87 415.128C142.477 412.894 137.577 409.619 133.449 405.491C129.321 401.364 126.047 396.463 123.812 391.07C121.579 385.677 120.429 379.896 120.429 374.058Z" fill="#D8DCFD"/>
<path d="M133.882 374.331L133.882 105.663C133.882 88.7576 147.586 75.0529 164.492 75.0529L620.799 75.0529C637.704 75.0529 651.409 88.7576 651.409 105.663V374.331C651.409 391.237 637.704 404.941 620.799 404.941L164.492 404.941C147.586 404.941 133.882 391.237 133.882 374.331Z" fill="white"/>
<path d="M406.41 116.776H597.324C606.692 116.776 614.287 124.371 614.287 133.739V338.905C614.287 348.273 606.692 355.867 597.324 355.867H406.41C397.042 355.867 389.448 348.273 389.448 338.905V133.739C389.448 124.371 397.042 116.776 406.41 116.776Z" stroke="#D8DCFD" stroke-width="0.96" stroke-miterlimit="10"/>
<path d="M176.444 116.776H353.476C362.844 116.776 370.438 124.371 370.438 133.739V237.112C370.438 246.48 362.844 254.074 353.476 254.074H176.444C167.076 254.074 159.481 246.48 159.481 237.112V133.739C159.481 124.371 167.076 116.776 176.444 116.776Z" stroke="#D8DCFD" stroke-width="0.96" stroke-miterlimit="10"/>
<path d="M176.444 273.2H353.476C362.844 273.2 370.438 280.795 370.438 290.163V338.671C370.438 348.039 362.844 355.634 353.476 355.634H176.444C167.076 355.634 159.481 348.039 159.481 338.671V290.163C159.481 280.795 167.076 273.2 176.444 273.2Z" stroke="#D8DCFD" stroke-width="0.96" stroke-miterlimit="10"/>
<path d="M425.381 273.785H578.607C582.484 273.785 585.626 276.928 585.626 280.804V311.59C585.626 315.466 582.484 318.609 578.607 318.609H425.381C421.504 318.609 418.362 315.466 418.362 311.59V280.804C418.362 276.928 421.504 273.785 425.381 273.785Z" fill="#9A7EE8"/>
<path d="M535.794 287.808C535.169 287.808 534.667 287.997 534.289 288.375C533.905 288.752 533.713 289.322 533.713 290.084V292.982H535.813V290.446C535.813 289.864 536.02 289.573 536.435 289.573C536.671 289.573 536.863 289.657 537.011 289.824C537.154 289.985 537.225 290.242 537.225 290.595V292.982H539.324V286.089H537.225V288.309C536.835 287.975 536.358 287.808 535.794 287.808ZM530.026 293.075C530.59 293.075 531.097 292.964 531.55 292.741C531.995 292.512 532.345 292.199 532.599 291.803C532.853 291.4 532.98 290.945 532.98 290.437C532.98 289.929 532.853 289.477 532.599 289.081C532.345 288.678 531.995 288.365 531.55 288.142C531.097 287.919 530.59 287.808 530.026 287.808C529.456 287.808 528.948 287.919 528.502 288.142C528.05 288.365 527.7 288.678 527.453 289.081C527.199 289.477 527.072 289.929 527.072 290.437C527.072 290.945 527.199 291.4 527.453 291.803C527.7 292.199 528.05 292.512 528.502 292.741C528.948 292.964 529.456 293.075 530.026 293.075ZM530.026 291.44C529.784 291.44 529.586 291.354 529.431 291.18C529.277 291 529.199 290.753 529.199 290.437C529.199 290.121 529.277 289.876 529.431 289.703C529.586 289.53 529.784 289.443 530.026 289.443C530.267 289.443 530.466 289.53 530.621 289.703C530.775 289.876 530.853 290.121 530.853 290.437C530.853 290.753 530.775 291 530.621 291.18C530.466 291.354 530.267 291.44 530.026 291.44ZM523.024 287.808C522.578 287.808 522.169 287.916 521.797 288.133C521.42 288.344 521.122 288.65 520.906 289.053C520.683 289.455 520.571 289.92 520.571 290.446C520.571 290.973 520.683 291.437 520.906 291.84C521.122 292.236 521.42 292.543 521.797 292.759C522.169 292.97 522.578 293.075 523.024 293.075C523.587 293.075 524.018 292.93 524.315 292.639V294.785H526.415V287.901H524.417V288.319C524.114 287.978 523.649 287.808 523.024 287.808ZM523.525 291.44C523.284 291.44 523.086 291.354 522.931 291.18C522.776 291.007 522.699 290.762 522.699 290.446C522.699 290.13 522.776 289.886 522.931 289.712C523.086 289.533 523.284 289.443 523.525 289.443C523.767 289.443 523.965 289.533 524.12 289.712C524.275 289.886 524.352 290.13 524.352 290.446C524.352 290.762 524.275 291.007 524.12 291.18C523.965 291.354 523.767 291.44 523.525 291.44ZM513.594 287.808C512.969 287.808 512.467 287.997 512.089 288.375C511.705 288.752 511.513 289.322 511.513 290.084V292.982H513.613V290.446C513.613 289.864 513.82 289.573 514.235 289.573C514.471 289.573 514.663 289.657 514.811 289.824C514.954 289.985 515.025 290.242 515.025 290.595V292.982H517.125V287.901H515.127V288.402C514.929 288.204 514.7 288.056 514.44 287.956C514.18 287.857 513.898 287.808 513.594 287.808ZM507.826 293.075C508.39 293.075 508.898 292.964 509.35 292.741C509.796 292.512 510.146 292.199 510.399 291.803C510.653 291.4 510.78 290.945 510.78 290.437C510.78 289.929 510.653 289.477 510.399 289.081C510.146 288.678 509.796 288.365 509.35 288.142C508.898 287.919 508.39 287.808 507.826 287.808C507.256 287.808 506.748 287.919 506.303 288.142C505.85 288.365 505.501 288.678 505.253 289.081C504.999 289.477 504.872 289.929 504.872 290.437C504.872 290.945 504.999 291.4 505.253 291.803C505.501 292.199 505.85 292.512 506.303 292.741C506.748 292.964 507.256 293.075 507.826 293.075ZM507.826 291.44C507.585 291.44 507.386 291.354 507.232 291.18C507.077 291 506.999 290.753 506.999 290.437C506.999 290.121 507.077 289.876 507.232 289.703C507.386 289.53 507.585 289.443 507.826 289.443C508.068 289.443 508.266 289.53 508.421 289.703C508.576 289.876 508.653 290.121 508.653 290.437C508.653 290.753 508.576 291 508.421 291.18C508.266 291.354 508.068 291.44 507.826 291.44ZM495.683 287.901L497.448 292.982H499.492L500.263 290.632L501.062 292.982H503.106L504.871 287.901H502.883L502.01 290.586L501.099 287.901H499.316L498.433 290.613L497.523 287.901H495.683Z" fill="white"/>
<path d="M427.525 137.891H576.463C581.524 137.891 585.626 141.994 585.626 147.055V247.211C585.626 252.272 581.524 256.374 576.463 256.374H427.525C422.464 256.374 418.362 252.272 418.362 247.211V147.055C418.362 141.994 422.464 137.891 427.525 137.891Z" fill="#A1AEEF"/>
<path d="M477.321 181.409H487.674V173.61C487.621 169.646 488.984 165.793 491.518 162.745C494.052 159.696 497.59 157.652 501.497 156.979C503.816 156.628 506.184 156.782 508.438 157.43C510.692 158.079 512.78 159.205 514.559 160.734C516.337 162.263 517.765 164.158 518.745 166.289C519.724 168.42 520.232 170.738 520.234 173.084V181.409H530.586C530.979 181.409 531.356 181.565 531.634 181.843C531.912 182.121 532.068 182.498 532.068 182.891V218.628C532.079 222.49 530.557 226.197 527.838 228.938C525.119 231.68 521.424 233.231 517.562 233.251H490.462C486.597 233.246 482.893 231.707 480.162 228.973C477.431 226.238 475.897 222.532 475.897 218.667V182.891C475.897 182.507 476.045 182.139 476.311 181.863C476.576 181.587 476.938 181.424 477.321 181.409ZM517.27 173.084C517.27 171.08 516.819 169.103 515.95 167.298C515.082 165.493 513.817 163.906 512.251 162.657C510.685 161.408 508.858 160.527 506.905 160.081C504.952 159.634 502.924 159.634 500.971 160.079C497.989 160.825 495.347 162.555 493.472 164.99C491.597 167.424 490.598 170.42 490.637 173.493V181.409H517.27V173.084ZM478.802 218.628C478.802 221.714 480.021 224.675 482.194 226.866C484.367 229.057 487.318 230.301 490.403 230.327H517.562C520.665 230.327 523.64 229.094 525.834 226.9C528.028 224.706 529.261 221.731 529.261 218.628V184.372H520.39V195.018C521.279 195.328 522.047 195.915 522.58 196.692C523.113 197.47 523.384 198.397 523.354 199.339C523.323 200.281 522.993 201.189 522.411 201.93C521.828 202.671 521.025 203.207 520.117 203.46C519.014 203.75 517.842 203.605 516.844 203.055C515.845 202.506 515.095 201.594 514.75 200.508C514.405 199.421 514.49 198.244 514.988 197.218C515.486 196.193 516.359 195.398 517.426 194.998V184.372H490.793V195.018C491.683 195.328 492.45 195.915 492.984 196.692C493.517 197.47 493.788 198.397 493.757 199.339C493.727 200.281 493.396 201.189 492.814 201.93C492.232 202.671 491.428 203.207 490.52 203.46C489.858 203.643 489.163 203.671 488.489 203.541C487.815 203.412 487.179 203.128 486.632 202.713C486.085 202.298 485.641 201.763 485.335 201.148C485.029 200.534 484.868 199.857 484.866 199.17C484.868 198.256 485.155 197.366 485.686 196.622C486.217 195.877 486.966 195.317 487.83 195.018V184.372H478.958V218.628H478.802Z" fill="white"/>
<path d="M425.381 159.767C415.797 159.767 408.028 151.998 408.028 142.415C408.028 132.831 415.797 125.063 425.381 125.063C434.964 125.063 442.733 132.831 442.733 142.415C442.733 151.998 434.964 159.767 425.381 159.767Z" fill="#F5DB4A"/>
<path d="M432.497 142.571L426.005 147.309L418.264 137.502" stroke="white" stroke-width="0.99" stroke-linecap="round" stroke-linejoin="round"/>
<path d="M580.947 92.8731C580.947 94.1379 581.322 95.3743 582.025 96.426C582.727 97.4776 583.726 98.2973 584.895 98.7813C586.063 99.2653 587.349 99.392 588.59 99.1452C589.83 98.8985 590.97 98.2894 591.864 97.3951C592.758 96.5007 593.367 95.3612 593.614 94.1207C593.861 92.8802 593.734 91.5944 593.25 90.4259C592.766 89.2573 591.947 88.2586 590.895 87.5559C589.843 86.8532 588.607 86.4781 587.342 86.4781C585.646 86.4781 584.019 87.1519 582.82 88.3512C581.621 89.5505 580.947 91.1771 580.947 92.8731Z" fill="#DD5213"/>
<path d="M556.108 92.8731C556.108 94.1379 556.483 95.3743 557.185 96.426C557.888 97.4776 558.887 98.2973 560.055 98.7813C561.224 99.2653 562.51 99.392 563.75 99.1452C564.991 98.8985 566.13 98.2894 567.025 97.3951C567.919 96.5007 568.528 95.3612 568.775 94.1207C569.022 92.8802 568.895 91.5944 568.411 90.4259C567.927 89.2573 567.107 88.2586 566.056 87.5559C565.004 86.8532 563.768 86.4781 562.503 86.4781C560.807 86.4781 559.18 87.1519 557.981 88.3512C556.781 89.5505 556.108 91.1771 556.108 92.8731Z" fill="#F5DB4A"/>
<path d="M531.21 92.8731C531.21 94.1379 531.585 95.3743 532.288 96.426C532.991 97.4776 533.989 98.2973 535.158 98.7813C536.327 99.2653 537.612 99.392 538.853 99.1452C540.093 98.8985 541.233 98.2894 542.127 97.3951C543.022 96.5007 543.631 95.3612 543.877 94.1207C544.124 92.8802 543.997 91.5944 543.513 90.4259C543.029 89.2573 542.21 88.2586 541.158 87.5559C540.106 86.8532 538.87 86.4781 537.605 86.4781C535.909 86.4781 534.283 87.1519 533.083 88.3512C531.884 89.5505 531.21 91.1771 531.21 92.8731Z" fill="#A1AEEF"/>
<path d="M671.647 134.226C648.948 134.226 630.547 115.825 630.547 93.1265C630.547 70.4278 648.948 52.0269 671.647 52.0269C694.345 52.0269 712.746 70.4278 712.746 93.1265C712.746 115.825 694.345 134.226 671.647 134.226Z" fill="#DD5213"/>
<path d="M657.668 82.5396C658.466 81.7561 659.412 81.1377 660.45 80.7195C661.487 80.3013 662.598 80.0917 663.716 80.1026C664.835 80.1134 665.941 80.3446 666.971 80.7828C668 81.221 668.933 81.8577 669.717 82.6566L671.9 84.8793L674.123 82.6761C675.734 81.0887 677.909 80.2061 680.171 80.2225C682.432 80.239 684.594 81.1531 686.182 82.7639C687.769 84.3746 688.652 86.55 688.636 88.8115C688.619 91.0729 687.705 93.2353 686.094 94.8227L677.808 102.992C677.009 103.775 676.064 104.394 675.026 104.812C673.988 105.23 672.878 105.44 671.759 105.429C670.64 105.418 669.534 105.187 668.505 104.749C667.475 104.311 666.542 103.674 665.759 102.875L657.609 94.5303C656.037 92.9272 655.161 90.7683 655.172 88.5229C655.183 86.2776 656.08 84.1273 657.668 82.5396Z" fill="white"/>
<path d="M51.1952 219.701H90.3646C92.8761 219.696 95.2832 218.696 97.0591 216.92C98.8349 215.144 99.8349 212.737 99.8401 210.225C99.8349 207.716 98.8343 205.31 97.0579 203.538C95.2814 201.765 92.8743 200.769 90.3646 200.769H51.1952C48.6873 200.769 46.2821 201.765 44.5088 203.539C42.7354 205.312 41.7392 207.717 41.7392 210.225C41.7392 212.735 42.7348 215.142 44.5076 216.919C46.2804 218.695 48.6855 219.696 51.1952 219.701Z" fill="#6473F9"/>
<path d="M78.7445 210.264C78.7406 210.747 78.8803 211.22 79.1457 211.624C79.4112 212.027 79.7904 212.342 80.2354 212.53C80.6804 212.717 81.1709 212.768 81.645 212.676C82.119 212.585 82.5551 212.354 82.8979 212.014C83.2407 211.674 83.4748 211.24 83.5704 210.766C83.666 210.293 83.6188 209.802 83.435 209.356C83.2511 208.909 82.9388 208.527 82.5376 208.259C82.1364 207.99 81.6644 207.847 81.1816 207.847C80.5386 207.847 79.9216 208.101 79.4651 208.554C79.0086 209.006 78.7496 209.621 78.7445 210.264Z" fill="white"/>
<path d="M68.3719 210.225C68.3719 210.704 68.5137 211.171 68.7794 211.569C69.045 211.966 69.4226 212.276 69.8644 212.459C70.3062 212.642 70.7922 212.69 71.2612 212.597C71.7302 212.503 72.1609 212.273 72.4991 211.935C72.8372 211.597 73.0674 211.166 73.1607 210.697C73.254 210.228 73.2061 209.742 73.0231 209.3C72.8401 208.858 72.5302 208.481 72.1327 208.215C71.7351 207.95 71.2677 207.808 70.7895 207.808C70.4713 207.805 70.1558 207.866 69.8613 207.986C69.5668 208.107 69.2993 208.285 69.0742 208.51C68.8492 208.735 68.6712 209.003 68.5506 209.297C68.4301 209.592 68.3693 209.907 68.3719 210.225Z" fill="white"/>
<path d="M57.9801 210.186C57.9801 210.827 58.2348 211.442 58.6882 211.896C59.1415 212.349 59.7565 212.604 60.3977 212.604C61.0389 212.604 61.6537 212.349 62.1071 211.896C62.5605 211.442 62.8153 210.827 62.8153 210.186C62.8153 209.545 62.5605 208.93 62.1071 208.477C61.6537 208.023 61.0389 207.768 60.3977 207.768C59.7565 207.768 59.1415 208.023 58.6882 208.477C58.2348 208.93 57.9801 209.545 57.9801 210.186Z" fill="white"/>
<path d="M391.417 536C383.33 536 376.775 529.444 376.775 521.358C376.775 513.271 383.33 506.715 391.417 506.715C399.504 506.715 406.059 513.271 406.059 521.358C406.059 529.444 399.504 536 391.417 536Z" fill="#A1AEEF"/>
<path d="M477.925 536C469.839 536 463.283 529.444 463.283 521.358C463.283 513.271 469.839 506.715 477.925 506.715C486.012 506.715 492.567 513.271 492.567 521.358C492.567 529.444 486.012 536 477.925 536Z" fill="#A1AEEF"/>
<path d="M259.247 283.612L292.782 290.436C296.206 291.056 299.376 292.661 301.903 295.054C304.431 297.446 306.207 300.523 307.015 303.908L336.806 428.357H503.563C508.582 428.35 513.465 426.729 517.491 423.735C521.518 420.74 524.475 416.53 525.926 411.726L542.577 339.022L311.05 320.792" stroke="black" stroke-width="0.97" stroke-miterlimit="10"/>
<path d="M531.951 385.483L323.665 373.317L348.719 476.144C350.755 484.838 355.672 492.588 362.669 498.134C369.667 503.681 378.335 506.698 387.264 506.696H508.769" stroke="black" stroke-width="0.97" stroke-miterlimit="10"/>
<path d="M360.904 324.731L380.986 428.357" stroke="black" stroke-width="0.97" stroke-miterlimit="10"/>
<path d="M492.587 335.103L481.415 428.357" stroke="black" stroke-width="0.97" stroke-miterlimit="10"/>
<path d="M427.798 329.995V428.357" stroke="black" stroke-width="0.97" stroke-miterlimit="10"/>
<path d="M84.4374 414.495L71.9398 393.633L24.2698 410.381L35.2271 428.981L84.4374 414.495Z" fill="#E6A57D"/>
<path d="M32.6731 420.071L32.79 420.247C33.4564 421.238 34.4278 421.986 35.557 422.377C36.6863 422.767 37.9119 422.779 39.0486 422.411C40.7853 421.637 42.7132 421.4 44.5857 421.728C45.6222 421.901 46.557 422.454 47.2063 423.28C47.8556 424.106 48.1727 425.145 48.0952 426.193C47.5493 433.563 46.1455 451.539 49.0115 466.805C49.3575 468.546 49.2718 470.344 48.762 472.043C48.2522 473.743 47.3337 475.291 46.087 476.554L44.7222 477.938L7.40508 414.125L27.8769 407.32C28.7271 406.579 29.8311 406.195 30.9577 406.25C32.0843 406.304 33.1462 406.793 33.9209 407.613C34.637 408.374 35.0579 409.365 35.1079 410.409C35.158 411.452 34.8339 412.48 34.1939 413.306L32.8875 414.924C32.3217 415.653 31.9971 416.541 31.9587 417.463C31.9203 418.386 32.1699 419.297 32.6731 420.071Z" fill="black"/>
<path d="M7.40508 414.066C7.05444 413.94 6.67786 413.905 6.30993 413.963C5.94199 414.021 5.59448 414.17 5.29938 414.397C4.65205 414.881 4.20903 415.589 4.0575 416.383C3.90596 417.177 4.05693 417.999 4.48054 418.687L38.3272 476.807C38.6405 477.34 39.0668 477.798 39.576 478.148C40.0852 478.498 40.6649 478.733 41.2745 478.835C41.8841 478.937 42.5087 478.905 43.1044 478.74C43.7 478.575 44.2522 478.281 44.7222 477.88L7.40508 414.066Z" fill="#D8DCFD"/>
<path d="M47.2761 436.371C47.2761 436.371 46.1258 434.635 41.427 435.474" stroke="white" stroke-width="1.17" stroke-linecap="round" stroke-linejoin="round"/>
<path d="M47.4126 441.108C47.4126 441.108 46.2623 439.373 41.5635 440.192" stroke="white" stroke-width="1.17" stroke-linecap="round" stroke-linejoin="round"/>
<path d="M47.4323 446.548C47.4323 446.548 46.2819 444.813 41.5832 445.632" stroke="white" stroke-width="1.17" stroke-linecap="round" stroke-linejoin="round"/>
<path d="M15.5547 410.518C15.5547 410.518 30.4503 427.207 27.7012 448.771L7.40495 414.066C9.86455 412.364 12.6329 411.159 15.5547 410.518Z" fill="#DD5213"/>
<path d="M205.611 310.05L181.064 381.214C179.854 384.862 177.883 388.212 175.282 391.042C172.68 393.872 169.508 396.117 165.974 397.63H165.837L64.3361 430.775L45.9895 390.299L141.778 353.255C141.778 353.255 166.617 261.795 175.761 252.748L205.611 310.05Z" fill="#8294DC"/>
<path d="M217.972 464.641L193.659 464.816L183.891 514.397H205.475L217.972 464.641Z" fill="#E6A57D"/>
<path d="M196.526 512.058H196.74C197.929 511.982 199.062 511.523 199.969 510.75C200.875 509.977 201.507 508.931 201.77 507.768C201.981 505.875 202.755 504.089 203.993 502.641C204.664 501.834 205.613 501.309 206.653 501.168C207.692 501.027 208.747 501.282 209.608 501.88C215.711 506.092 230.411 516.425 245.073 521.709C246.736 522.293 248.231 523.275 249.428 524.57C250.624 525.865 251.485 527.433 251.936 529.137L252.443 531.087L178.51 530.833L183.053 509.757C182.848 508.648 183.078 507.503 183.695 506.559C184.312 505.615 185.269 504.945 186.368 504.688C187.39 504.453 188.463 504.593 189.39 505.083C190.317 505.574 191.037 506.382 191.417 507.359L192.139 509.309C192.496 510.164 193.11 510.888 193.895 511.38C194.681 511.873 195.6 512.109 196.526 512.058Z" fill="black"/>
<path d="M178.51 530.775C178.234 531.014 178.018 531.315 177.883 531.655C177.747 531.994 177.695 532.361 177.73 532.725C177.823 533.527 178.212 534.267 178.822 534.797C179.431 535.327 180.217 535.61 181.025 535.591L248.27 535.942C248.888 535.939 249.498 535.802 250.058 535.54C250.617 535.278 251.113 534.897 251.51 534.424C251.907 533.95 252.196 533.396 252.357 532.8C252.518 532.203 252.548 531.579 252.443 530.97L178.51 530.775Z" fill="#D8DCFD"/>
<path d="M217.972 507.768C217.972 507.768 215.886 507.866 214.229 512.311" stroke="white" stroke-width="1.17" stroke-linecap="round" stroke-linejoin="round"/>
<path d="M222.125 510.108C222.125 510.108 220.039 510.108 218.381 514.651" stroke="white" stroke-width="1.17" stroke-linecap="round" stroke-linejoin="round"/>
<path d="M226.824 512.799C226.824 512.799 224.738 512.896 223.08 517.341" stroke="white" stroke-width="1.17" stroke-linecap="round" stroke-linejoin="round"/>
<path d="M179.602 521.962C179.602 521.962 201.536 517.595 218.732 530.911L178.51 530.775C178.293 527.794 178.664 524.8 179.602 521.962Z" fill="#DD5213"/>
<path d="M213.624 274.195L246.282 365.207C248.08 370.245 248.616 375.647 247.841 380.941L221.755 491.215L177.828 485.581L198.534 377.529C198.534 377.529 153.691 300.828 155.465 269.983L213.624 274.195Z" fill="#A1AEEF"/>
<path d="M242.051 153.08L230.372 177.353L212.532 162.906L229.963 135.24L242.051 153.08Z" fill="#E6A57D"/>
<path d="M237.333 162.906L232.79 148.693L241.719 153.879L237.333 162.906Z" fill="black"/>
<path d="M252.267 102.992C252.267 102.992 263.692 105.741 263.283 120.305C263.283 120.305 263.283 125.862 262.503 141.05C262.133 149.083 256.401 159.085 246.34 157.778C241.466 157.135 236.416 153.996 231.932 149.98L225.693 143.253C211.362 124.692 227.643 97.8058 250.61 102.583C251.156 102.719 251.702 102.836 252.267 102.992Z" fill="#E6A57D"/>
<path d="M261.723 131.302L265.876 139.666C266.007 139.826 266.09 140.019 266.117 140.224C266.144 140.429 266.113 140.637 266.028 140.826C265.943 141.014 265.807 141.175 265.636 141.29C265.464 141.406 265.264 141.471 265.057 141.479L259.774 141.947L261.723 131.302Z" fill="#E6A57D"/>
<path d="M257.882 126.876C257.882 126.876 252.774 128.085 252.54 131.126C252.267 135.026 257.005 134.246 257.005 134.246C257.005 134.246 261.47 130.58 257.882 126.876Z" fill="white"/>
<path d="M257.142 125.862C257.142 125.862 254.003 131.321 257.726 135.123L259.871 134.967L260.164 128.864L257.142 125.862Z" fill="black"/>
<path d="M258.74 126.018C258.019 126.143 257.313 126.345 256.635 126.622C255.948 126.893 255.294 127.24 254.685 127.656C253.477 128.482 252.616 129.725 252.267 131.146C252.262 131.174 252.262 131.203 252.268 131.231C252.273 131.259 252.285 131.286 252.301 131.31C252.318 131.333 252.339 131.353 252.363 131.369C252.387 131.384 252.414 131.394 252.443 131.399C252.468 131.408 252.495 131.412 252.522 131.409C252.549 131.407 252.576 131.4 252.599 131.387C252.623 131.374 252.644 131.356 252.661 131.335C252.678 131.314 252.69 131.289 252.696 131.263C253.155 130.052 254.043 129.052 255.192 128.455C256.316 127.867 257.552 127.521 258.818 127.441C259.009 127.441 259.193 127.365 259.328 127.23C259.464 127.095 259.54 126.911 259.54 126.72C259.54 126.529 259.464 126.345 259.328 126.21C259.193 126.074 259.009 125.998 258.818 125.998L258.74 126.018Z" fill="black"/>
<path d="M260.631 144.93H255.64C255.64 144.93 259.013 149.843 260.631 144.93Z" fill="white"/>
<path d="M247.861 123.327C248.112 123.44 248.385 123.499 248.66 123.499C248.936 123.499 249.208 123.44 249.46 123.327C251.696 122.306 254.011 121.465 256.381 120.812C261.957 119.214 259.325 115.743 256.381 116.172C252.976 116.893 249.893 118.691 247.588 121.3C246.769 122.489 247.256 123.054 247.861 123.327Z" fill="black"/>
<path d="M230.431 133.485C230.431 133.485 233.784 143.117 222.203 147.991C222.203 147.991 196.408 112.643 234.311 100.691L236.397 104.337L230.431 133.485Z" fill="#DD5213"/>
<path d="M218.986 106.267C218.986 107.925 220.76 120.578 220.76 120.578L234.856 132.647C234.856 132.647 242.831 121.339 239.926 110.03C239.848 110.03 218.791 99.9894 218.986 106.267Z" fill="#DD5213"/>
<path d="M223.158 130.717C222.954 132.078 223.16 133.47 223.749 134.714C224.338 135.959 225.283 137 226.466 137.706C227.648 138.411 229.013 138.749 230.388 138.677C231.763 138.604 233.086 138.124 234.187 137.298C235.288 136.472 236.119 135.337 236.574 134.037C237.029 132.738 237.087 131.332 236.74 130C236.394 128.667 235.659 127.468 234.629 126.554C233.6 125.64 232.321 125.053 230.957 124.868C229.149 124.622 227.317 125.098 225.858 126.193C224.398 127.287 223.429 128.912 223.158 130.717Z" fill="#E6A57D"/>
<path d="M236.806 95.8755C236.806 95.8755 214.56 94.8227 209.51 105.8C202.004 122.099 211.714 133.661 222.281 147.991L220.838 120.578L236.806 95.8755Z" fill="#DD5213"/>
<path d="M237.722 113.403C237.722 113.403 244.722 107.964 252.267 109.504C259.813 111.044 268.274 111.844 268.996 102.992C269.912 91.6837 234.369 78.1918 211.538 102.816L229.631 112.37L237.722 113.403Z" fill="#DD5213"/>
<path d="M345.053 173.942C335.441 179.206 327.389 178.777 323.607 171.387C321.858 167.831 321.59 163.727 322.862 159.974C324.133 156.22 326.841 153.124 330.392 151.364C337.781 147.679 344.137 149.278 348.914 156.024C352.657 161.249 353.222 169.438 345.053 173.942Z" fill="#E6A57D"/>
<path d="M343.572 151.481C343.572 151.481 342.363 146.587 333.823 147.679C326.024 148.673 317.992 157.427 323.646 171.387L343.572 151.481Z" fill="#E6A57D"/>
<path d="M342.48 155.263L357.395 145.203C358.034 144.834 358.505 144.232 358.709 143.523C358.913 142.813 358.833 142.053 358.487 141.401C358.195 140.854 357.706 140.439 357.12 140.24C356.533 140.041 355.892 140.072 355.328 140.329L337.586 148.127L342.48 155.263Z" fill="#E6A57D"/>
<path d="M267.28 185.094L326.648 164.739L334.291 175.443L278.354 208.587C270.321 213.247 262.016 207.593 259.306 198.722C257.2 191.879 260.729 188.116 267.28 185.094Z" fill="#E6A57D"/>
<path d="M216.1 172.811L277.087 186.731C285.041 190.046 289.643 190.962 286.835 199.112C285.437 203.227 282.463 206.619 278.567 208.546C274.671 210.472 270.17 210.774 266.051 209.387L206.82 200.438C198.611 197.708 193.016 191.84 194.049 183.28C195.57 171.29 204.968 168.112 216.1 172.811Z" fill="#E6A57D"/>
<path d="M250.161 180.551L239.107 213.579L202.608 208.276L205.221 169.594L250.161 180.551Z" fill="#E9CD44"/>
<path d="M231.367 174.975L219.863 290.67C171.959 299.131 151.624 277.022 151.624 277.022C151.624 277.022 164.862 237.501 174.728 209.445C185.081 179.985 200.444 169.087 212.591 162.945L231.367 174.975Z" fill="#F5DB4A"/>
<path d="M212.533 162.886C212.533 162.886 221.501 181.525 230.353 184.859L231.464 174.721L219.415 166.22L212.533 162.886Z" fill="#E6A57D"/>
<path d="M198.846 243.955L257.571 266.045L257.629 279.654L188.863 266.825L198.846 243.955Z" fill="#E6A57D"/>
<path d="M279.855 279.342C276.872 270.939 267.494 268.696 267.494 268.696L254.802 265.051L248.953 271.056L253.145 275.072C251.955 280.687 253.671 289.929 260.3 293.594C268.001 297.825 282.839 287.842 279.855 279.342Z" fill="#E6A57D"/>
<path d="M217.309 206.716L204.11 258.578C202.647 264.31 194.732 267.917 188.902 266.805C187.456 266.532 186.078 265.975 184.847 265.169C183.616 264.362 182.557 263.32 181.729 262.103C180.902 260.886 180.322 259.517 180.024 258.076C179.726 256.635 179.715 255.149 179.992 253.704L189.936 201.491L217.309 206.716Z" fill="#E6A57D"/>
<path d="M207.561 170.549C209.34 170.394 211.132 170.645 212.8 171.283C214.469 171.922 215.971 172.93 217.192 174.234C219.651 176.782 221.465 179.881 222.482 183.273C223.5 186.664 223.691 190.25 223.041 193.731C221.268 205.112 218.448 216.305 214.619 227.168L183.969 222.235C183.969 222.235 187.089 172.947 207.561 170.549Z" fill="#F5DB4A"/>
<path d="M212.084 226.525C212.084 226.525 217.329 207.379 218.518 196.909" stroke="black" stroke-width="0.41" stroke-linecap="round" stroke-linejoin="round"/>
<path d="M779.328 535.961H10.9339" stroke="#070C09" stroke-width="0.74" stroke-miterlimit="10"/>
</g>
<defs>
<filter id="filter0_d_1:297" x="0.00012207" y="11.7072" width="783.328" height="532.624" filterUnits="userSpaceOnUse" color-interpolation-filters="sRGB">
<feFlood flood-opacity="0" result="BackgroundImageFix"/>
<feColorMatrix in="SourceAlpha" type="matrix" values="0 0 0 0 0 0 0 0 0 0 0 0 0 0 0 0 0 0 127 0" result="hardAlpha"/>
<feOffset dy="4"/>
<feGaussianBlur stdDeviation="2"/>
<feComposite in2="hardAlpha" operator="out"/>
<feColorMatrix type="matrix" values="0 0 0 0 0 0 0 0 0 0 0 0 0 0 0 0 0 0 0.25 0"/>
<feBlend mode="normal" in2="BackgroundImageFix" result="effect1_dropShadow_1:297"/>
<feBlend mode="normal" in="SourceGraphic" in2="effect1_dropShadow_1:297" result="shape"/>
</filter>
</defs>
</svg>
