<svg width="23" height="22" viewBox="0 0 23 22" fill="none" xmlns="http://www.w3.org/2000/svg">
<rect x="3.64285" y="3.14282" width="15.7143" height="15.7143" fill="white"/>
<path d="M20.1429 0H2.85714C1.5558 0 0.5 1.0558 0.5 2.35714V19.6429C0.5 20.9442 1.5558 22 2.85714 22H20.1429C21.4442 22 22.5 20.9442 22.5 19.6429V2.35714C22.5 1.0558 21.4442 0 20.1429 0ZM17.7415 7.79821C17.7513 7.93571 17.7513 8.07812 17.7513 8.21562C17.7513 12.4732 14.5103 17.379 8.58795 17.379C6.76116 17.379 5.06696 16.8487 3.64286 15.9353C3.90313 15.9647 4.15357 15.9746 4.41875 15.9746C5.92634 15.9746 7.31116 15.4638 8.41607 14.5996C7.00179 14.5701 5.81339 13.642 5.4058 12.3652C5.90179 12.4388 6.34866 12.4388 6.85938 12.3062C5.38616 12.0067 4.28125 10.7103 4.28125 9.14375V9.10446C4.70848 9.34509 5.20937 9.49241 5.73482 9.51205C5.29307 9.21821 4.93093 8.81958 4.68072 8.35173C4.43052 7.88388 4.30002 7.36136 4.30089 6.8308C4.30089 6.2317 4.45804 5.6817 4.73795 5.20536C6.32411 7.15982 8.7058 8.43661 11.3772 8.57411C10.9205 6.38884 12.5558 4.61607 14.5201 4.61607C15.4482 4.61607 16.283 5.00402 16.8723 5.63259C17.5991 5.49509 18.2964 5.225 18.9152 4.8567C18.6746 5.60312 18.1688 6.2317 17.5009 6.62946C18.1491 6.56071 18.7777 6.37902 19.3571 6.12857C18.9201 6.77187 18.3701 7.34152 17.7415 7.79821Z" fill="#019DE8"/>
</svg>
